# xmcd CD database file
#
# Track frame offsets:
#	150
#	12254
#	21481
#	33286
#	40845
#	62470
#	73619
#	86321
#	99928
#	111853
#	123000
#	144357
#	156481
#	174011
#
# Disc length: 2839 seconds
#
# Revision: 4
# Processed by: cddbd v1.5.1PL0 Copyright (c) Steve Scherf et al.
# Submitted via: CDex 1.50
#
DISCID=a40b150e
DTITLE=Various Artist - Dive into Disney
DYEAR=2002
DGENRE=
TTITLE0=Mickey Mouse Club March [Mickey Mouse Club] - BEAT CRUSADERS
TTITLE1=Yo Ho [Disneyland] - Snuff
TTITLE2=Main Street Electrical Parade [Disneyland] - Reel Big Fish
TTITLE3=It's a Small World [Disneyland] - H2O
TTITLE4=When You Wish Upon a Star [Pinocchio] - the band apart
TTITLE5=Baby Mine [Dumbo] - HUSKING BEE
TTITLE6=Chim Chiim Cher-ee [Mary Poppins] - All
TTITLE7=Forever and Ever [Winnie the Pooh's Most Grand Adventure] - ASPARAGUS
TTITLE8=I Wan'na Be Like You [The Jungle Book] - VOODOO GLOW SKULLS
TTITLE9=Supercalifragilisticexpialidocious [Mary Poppins] - Oi-SKALL MATES
TTITLE10=Go the Distance [Hercules] - Doping Panda
TTITLE11=Bibbidi-Bobbidi-Boo [Cinderella] - 4106, Yuki, TDC, Masa (SPOONY)
TTITLE12=Hakuna Matata [The Lion King] - RUDE BONES
TTITLE13=Someone's Waiting for You [The Rescuers] - Tsutchie feat. Mayu Kitaki
EXTD=YEAR: 2002
EXTT0=
EXTT1=
EXTT2=
EXTT3=
EXTT4=
EXTT5=
EXTT6=
EXTT7=
EXTT8=
EXTT9=
EXTT10=
EXTT11=
EXTT12=
EXTT13=
PLAYORDER=
